<svg width="375" height="682" viewBox="0 0 375 682" fill="none" xmlns="http://www.w3.org/2000/svg">
<rect width="375" height="682" fill="#E5E5E5"/>
<g clip-path="url(#clip0)">
<rect width="375" height="682" fill="#2B2626"/>
<path d="M357 271C357 361.575 281.336 435 188 435C94.6639 435 19 361.575 19 271C19 180.425 94.6639 107 188 107C281.336 107 357 180.425 357 271Z" fill="#DD3F3F"/>
<path d="M357 267.839C357 360.898 281.336 441.338 188 441.338C94.6639 441.338 19 365.898 19 272.839C19 179.779 43.6639 315.338 137 315.338C230.336 315.338 357 174.779 357 267.839Z" fill="#1427D2"/>
<path d="M226.434 484.297V492.023C225.805 491.844 225.086 491.844 224.457 491.844C220.145 491.844 217 494.988 217 500.109C217 504.152 221.312 505.23 224.008 506.848C225.176 507.566 226.164 508.375 227.062 509.184V509.273C228.59 510.621 229.219 511.34 229.219 511.969V512.148C228.77 512.688 228.5 513.406 228.5 514.125V519.875C228.5 521.492 229.578 522.75 231.016 522.75H251.77C253.207 522.75 254.375 521.492 254.375 519.875V514.125C254.375 513.406 254.016 512.688 253.656 512.148V511.969C253.656 509.363 257.25 505.949 257.25 500.469V498.582C257.25 493.012 253.746 489.688 248.984 489.598C247.457 488.52 245.391 487.98 243.414 488.16C242.785 487.891 242.066 487.621 241.438 487.441V484.297C241.438 480.164 238.023 476.75 233.891 476.75C229.848 476.75 226.434 480.254 226.434 484.297ZM237.125 484.297V492.473C238.383 491.305 240.898 491.125 242.605 492.922C244.312 491.844 246.648 492.742 247.367 494.09C250.871 493.461 252.938 494.988 252.938 498.582V500.469C252.938 504.602 249.703 507.477 249.344 511.25H233.441C233.172 509.004 231.555 507.477 229.848 505.949C228.77 504.961 227.602 504.062 226.344 503.254C224.188 501.906 221.312 500.828 221.312 500.109C221.312 497.953 222.031 496.156 224.457 496.156C227.602 496.156 229.219 498.492 230.746 498.492V484.297C230.746 482.59 232.273 481.062 233.891 481.062C235.598 481.062 237.125 482.59 237.125 484.297ZM248.625 514.844C249.793 514.844 250.781 515.832 250.781 517C250.781 518.258 249.793 519.156 248.625 519.156C247.367 519.156 246.469 518.258 246.469 517C246.469 515.832 247.367 514.844 248.625 514.844Z" fill="#E5E5E5"/>
<path d="M108.816 505.965H124.359V502.73H108.816V491.41H125.258V488.176H105.043V520.969H108.816V505.965ZM152.211 508.57C152.211 501.562 148.527 497.25 142.418 497.25C136.039 497.25 131.547 502.191 131.547 509.289C131.547 516.746 135.859 521.328 143.137 521.328C146.371 521.328 149.785 520.07 151.852 518.184L150.594 515.488C148.348 517.285 145.832 518.184 143.137 518.184C138.016 518.184 135.32 515.129 135.32 509.289H152.211V508.57ZM135.41 506.863C136.129 502.641 138.555 500.215 142.418 500.215C146.281 500.215 148.527 502.461 148.887 506.863H135.41ZM179.883 509.379C179.883 502.191 175.75 497.25 169.551 497.25C165.777 497.25 162.902 499.137 161.555 502.281L161.195 497.789H157.691C157.871 499.766 158.051 501.922 158.051 504.348V530.941H161.734V516.656C163.172 519.621 165.957 521.328 169.551 521.328C175.75 521.328 179.883 516.566 179.883 509.379ZM176.02 509.379C176.02 515.039 173.414 518.184 168.922 518.184C164.34 518.184 161.734 514.949 161.734 509.289C161.734 503.539 164.34 500.395 168.922 500.395C173.324 500.395 176.02 503.719 176.02 509.379ZM185.273 518.273C187.52 520.25 190.574 521.328 194.527 521.328C200.098 521.328 203.602 518.723 203.602 514.68C203.602 511.445 201.535 509.469 197.223 508.391L193.359 507.402C190.844 506.863 189.766 505.785 189.766 503.898C189.766 501.652 191.652 500.305 194.977 500.305C197.402 500.305 199.738 501.203 201.895 503L203.152 500.305C201.176 498.328 198.211 497.25 194.977 497.25C189.586 497.25 186.082 500.125 186.082 504.168C186.082 507.223 188.238 509.469 192.102 510.367L196.055 511.266C198.84 511.984 200.008 512.973 200.008 514.77C200.008 517.016 198.121 518.273 194.707 518.273C191.473 518.273 189.047 517.555 186.531 515.578L185.273 518.273ZM213.484 492.219V487.996H208.992V492.219H213.484ZM213.035 497.789H209.352V520.969H213.035V497.789Z" fill="#E5E5E5"/>
</g>
<defs>
<clipPath id="clip0">
<rect width="375" height="682" fill="white"/>
</clipPath>
</defs>
</svg>
